<?xml version="1.0" standalone="no"?>
<!DOCTYPE svg PUBLIC "-//W3C//DTD SVG 20010904//EN"
 "http://www.w3.org/TR/2001/REC-SVG-20010904/DTD/svg10.dtd">
<svg version="1.0" xmlns="http://www.w3.org/2000/svg"
 width="643.000000pt" height="643.000000pt" viewBox="0 0 643.000000 643.000000"
 preserveAspectRatio="xMidYMid meet">
<metadata>
Created by potrace 1.14, written by Peter Selinger 2001-2017
</metadata>
<g transform="translate(0.000000,643.000000) scale(0.100000,-0.100000)"
fill="#000000" stroke="none">
<path d="M6425 3220 c0 -1361 1 -1918 2 -1237 2 680 2 1794 0 2475 -1 680 -2
123 -2 -1238z"/>
<path d="M2980 5490 c-171 -26 -383 -80 -396 -101 -15 -25 15 -24 103 2 698
203 1438 56 2013 -399 91 -71 258 -241 339 -342 143 -179 262 -383 341 -587
39 -100 110 -353 110 -394 0 -19 25 -37 37 -26 10 10 -37 206 -82 340 -79 234
-223 497 -380 692 -76 94 -243 263 -335 338 -309 250 -705 421 -1113 481 -150
22 -483 20 -637 -4z"/>
<path d="M1414 5359 c-10 -12 -35 -32 -54 -45 -162 -110 -189 -134 -225 -203
-9 -19 -18 -56 -19 -83 -1 -38 -3 -46 -11 -33 -27 46 -33 50 -46 37 -18 -17
42 -223 79 -272 26 -33 26 -39 24 -140 -4 -123 -32 -258 -74 -350 -117 -256
-138 -315 -158 -451 -11 -74 -20 -146 -20 -161 0 -33 -20 -38 -20 -5 -1 12 -7
33 -15 47 -8 14 -14 33 -15 44 0 36 -83 191 -131 247 -27 31 -53 67 -59 80
-39 85 -68 108 -55 42 4 -21 9 -65 10 -98 1 -33 12 -87 24 -119 11 -33 21 -64
21 -70 0 -6 -26 15 -58 46 -31 31 -95 82 -142 114 -47 32 -86 62 -88 66 -2 4
-10 8 -18 8 -16 0 -19 -41 -5 -68 5 -9 14 -36 20 -59 19 -68 173 -283 204
-283 4 0 38 -24 75 -54 37 -29 87 -66 112 -81 83 -52 116 -118 130 -259 19
-193 46 -305 120 -501 21 -55 42 -111 45 -125 13 -46 45 -100 59 -100 7 0 19
6 25 14 9 10 4 33 -19 97 -67 181 -107 315 -99 336 4 11 70 82 147 159 129
129 142 145 181 229 23 50 46 98 51 107 14 24 12 65 -2 74 -6 4 -20 -5 -32
-22 -34 -47 -67 -74 -130 -106 -32 -16 -80 -51 -106 -77 -50 -50 -115 -157
-135 -224 -15 -48 -19 -41 -34 56 -6 37 -16 96 -22 132 -16 91 -1 307 32 471
8 42 15 53 42 68 18 9 46 25 62 36 24 15 57 21 140 26 107 6 158 1 252 -27 23
-7 46 -10 50 -6 16 17 -167 118 -246 136 l-36 8 50 7 c28 4 72 11 100 15 32 6
57 5 69 -1 48 -26 207 -58 287 -58 77 0 170 31 251 82 37 24 75 48 85 54 33
21 5 27 -64 13 -101 -20 -138 -14 -318 52 -33 12 -77 24 -98 28 l-39 6 65 47
c113 83 178 161 165 198 -1 5 -29 -8 -61 -30 -69 -47 -132 -71 -258 -101 -102
-24 -294 -109 -346 -153 -34 -29 -43 -19 -20 20 16 29 163 166 266 249 98 78
161 120 246 162 33 16 69 35 80 41 11 6 43 17 70 26 57 17 67 13 127 -47 34
-34 59 -51 130 -91 36 -19 62 -24 153 -28 118 -5 135 -3 135 17 0 13 -248 145
-317 169 -41 14 -41 14 273 32 l112 6 90 -92 c87 -90 91 -93 146 -101 51 -7
62 -4 114 22 31 16 64 29 72 29 9 0 47 20 85 43 39 24 73 43 78 43 16 -2 69
40 83 66 16 31 16 31 -66 67 -138 59 -217 85 -265 84 -61 0 -154 -22 -260 -61
-59 -22 -107 -32 -180 -37 -55 -4 -119 -11 -142 -16 -80 -17 -180 -29 -259
-30 -50 0 -87 -6 -102 -16 -13 -8 -29 -12 -35 -10 -16 5 66 47 92 47 11 0 23
5 26 10 4 6 28 20 53 31 129 58 172 82 225 129 51 47 77 90 45 77 -131 -51
-270 -98 -275 -93 -4 3 116 90 148 106 13 7 53 37 89 65 36 29 76 58 91 66 46
26 138 94 143 107 8 18 -26 15 -81 -9 -60 -26 -145 -49 -182 -49 -53 0 -186
-40 -239 -73 -71 -42 -134 -97 -152 -133 -8 -16 -42 -74 -75 -129 -33 -55 -74
-126 -90 -159 -17 -34 -49 -75 -75 -97 -176 -149 -246 -207 -272 -229 l-31
-25 7 45 c3 25 10 104 16 175 10 143 5 132 95 189 25 15 58 44 73 63 15 20 42
52 60 72 23 25 32 45 32 71 1 19 7 46 15 60 22 39 19 112 -8 151 -35 52 -47
103 -34 139 15 41 -2 59 -29 29z m1286 -507 c0 -8 -43 -32 -57 -32 -3 0 2 9
12 20 18 20 45 27 45 12z"/>
<path d="M3290 5335 c-25 -30 5 -57 40 -35 11 7 12 14 4 27 -15 23 -29 26 -44
8z"/>
<path d="M3164 5325 c-4 -9 -2 -21 4 -27 16 -16 47 -5 47 17 0 26 -42 34 -51
10z"/>
<path d="M3404 5325 c-4 -9 -2 -21 4 -27 16 -16 47 -5 47 17 0 26 -42 34 -51
10z"/>
<path d="M3044 5315 c-4 -9 -2 -21 4 -27 16 -16 47 -5 47 17 0 26 -42 34 -51
10z"/>
<path d="M3524 5315 c-4 -9 -2 -21 4 -27 16 -16 47 -5 47 17 0 26 -42 34 -51
10z"/>
<path d="M2932 5311 c-20 -12 -10 -46 14 -49 25 -4 40 24 23 44 -13 16 -19 17
-37 5z"/>
<path d="M3651 5306 c-17 -20 -2 -48 23 -44 24 3 34 37 14 49 -18 12 -24 11
-37 -5z"/>
<path d="M2804 5275 c-8 -21 2 -45 19 -45 20 0 40 27 33 45 -7 19 -45 20 -52
0z"/>
<path d="M3763 5274 c-3 -8 2 -23 11 -32 15 -15 17 -15 32 0 21 21 11 48 -16
48 -11 0 -23 -7 -27 -16z"/>
<path d="M2691 5247 c-17 -21 -3 -49 23 -45 15 2 21 10 21 28 0 28 -26 38 -44
17z"/>
<path d="M3884 5245 c-8 -21 2 -45 19 -45 21 0 38 25 31 44 -8 20 -43 21 -50
1z"/>
<path d="M2574 5206 c-9 -24 4 -48 23 -44 12 2 18 12 18 28 0 29 -32 41 -41
16z"/>
<path d="M3997 5201 c-6 -25 14 -44 37 -35 24 9 16 48 -10 52 -15 2 -23 -3
-27 -17z"/>
<path d="M2473 5173 c-7 -3 -13 -16 -13 -29 0 -19 5 -24 25 -24 20 0 25 5 25
24 0 25 -15 36 -37 29z"/>
<path d="M4121 5170 c-19 -11 -9 -45 14 -45 13 0 21 8 23 21 3 23 -17 37 -37
24z"/>
<path d="M4233 5123 c-7 -2 -13 -16 -13 -29 0 -19 5 -24 24 -24 30 0 40 24 20
45 -9 8 -16 15 -17 14 -1 0 -8 -3 -14 -6z"/>
<path d="M4331 5056 c-15 -18 -3 -46 20 -46 25 0 35 26 19 45 -15 19 -24 19
-39 1z"/>
<path d="M4437 4994 c-10 -10 -9 -42 2 -48 18 -11 42 6 39 28 -3 21 -28 33
-41 20z"/>
<path d="M4526 4914 c-4 -10 -1 -24 7 -31 19 -19 49 -5 45 21 -4 27 -43 34
-52 10z"/>
<path d="M4624 4835 c-8 -19 3 -35 26 -35 19 0 34 25 24 41 -8 14 -44 10 -50
-6z"/>
<path d="M4720 4765 c-18 -21 -4 -47 22 -43 29 4 35 34 10 47 -15 8 -23 7 -32
-4z"/>
<path d="M4801 4676 c-17 -20 -2 -48 23 -44 24 3 34 37 14 49 -18 12 -24 11
-37 -5z"/>
<path d="M4881 4586 c-15 -18 -3 -46 20 -46 25 0 35 26 19 45 -15 19 -24 19
-39 1z"/>
<path d="M4954 4486 c-9 -24 4 -48 23 -44 12 2 18 12 18 28 0 29 -32 41 -41
16z"/>
<path d="M5024 4386 c-9 -24 4 -48 23 -44 12 2 18 12 18 28 0 29 -32 41 -41
16z"/>
<path d="M5091 4290 c-7 -4 -11 -16 -9 -26 4 -22 37 -31 48 -13 16 25 -14 55
-39 39z"/>
<path d="M5141 4177 c-17 -21 -3 -49 23 -45 15 2 21 10 21 28 0 28 -26 38 -44
17z"/>
<path d="M5190 4065 c-11 -13 -11 -19 3 -32 21 -21 49 -9 45 19 -4 28 -30 35
-48 13z"/>
<path d="M5226 3945 c-7 -19 20 -46 39 -39 8 4 15 17 15 30 0 19 -5 24 -24 24
-13 0 -26 -7 -30 -15z"/>
<path d="M3820 3845 c-8 -10 -18 -11 -36 -4 -43 16 -116 11 -151 -11 -93 -57
-78 -198 25 -225 50 -13 133 -47 147 -61 25 -25 19 -87 -11 -117 -38 -39 -76
-43 -132 -15 -35 17 -52 34 -67 66 -11 23 -23 42 -27 42 -5 0 -8 -31 -8 -70 0
-38 3 -70 7 -70 3 0 14 7 23 15 14 13 21 13 55 -5 68 -35 138 -20 188 39 46
55 48 151 4 195 -12 12 -61 34 -109 49 -56 18 -91 34 -98 47 -29 53 12 110 80
110 57 0 79 -14 101 -66 11 -24 24 -44 29 -44 12 0 13 127 1 134 -5 3 -14 -1
-21 -9z"/>
<path d="M1690 3840 c0 -5 11 -10 25 -10 l25 0 0 -215 0 -215 -25 0 c-14 0
-25 -4 -25 -10 0 -6 36 -10 89 -10 50 0 93 5 96 10 4 6 -7 10 -24 10 l-31 0 0
95 0 95 38 0 c103 0 162 48 162 131 0 61 -35 105 -95 119 -55 13 -235 13 -235
0z m234 -31 c23 -18 26 -27 26 -85 0 -82 -25 -114 -90 -114 l-40 0 0 110 0
110 39 0 c24 0 48 -8 65 -21z"/>
<path d="M4307 3839 c-24 -14 -47 -62 -47 -101 0 -52 -11 -78 -31 -78 -10 0
-21 -4 -24 -10 -4 -6 5 -10 19 -10 l26 0 0 -120 0 -120 -26 0 c-14 0 -23 -4
-19 -10 3 -5 42 -10 86 -10 46 0 79 4 79 10 0 6 -11 10 -25 10 l-25 0 0 120 0
120 30 0 c17 0 30 5 30 10 0 6 -13 10 -30 10 l-30 0 0 73 c0 76 9 97 43 97 16
0 17 -2 7 -15 -16 -19 -1 -39 26 -33 26 5 28 24 5 47 -22 22 -65 27 -94 10z"/>
<path d="M4440 3840 c0 -5 11 -10 25 -10 l25 0 0 -215 0 -215 -26 0 c-14 0
-23 -4 -19 -10 3 -5 40 -10 81 -10 43 0 74 4 74 10 0 6 -9 10 -20 10 -19 0
-20 8 -22 223 l-3 222 -57 3 c-36 2 -58 -1 -58 -8z"/>
<path d="M5270 3835 c-11 -13 -11 -19 3 -32 21 -21 49 -9 45 19 -4 28 -30 35
-48 13z"/>
<path d="M2118 3809 c-22 -12 -23 -42 -3 -59 32 -26 81 13 59 48 -14 21 -33
25 -56 11z"/>
<path d="M2946 3804 c-19 -19 -20 -25 -3 -48 19 -26 61 -18 65 12 7 44 -32 67
-62 36z"/>
<path d="M5293 3714 c-3 -8 2 -23 11 -32 15 -15 17 -15 32 0 21 21 11 48 -16
48 -11 0 -23 -7 -27 -16z"/>
<path d="M2350 3659 c-104 -43 -128 -175 -45 -248 30 -26 44 -31 85 -31 53 0
103 31 113 70 8 30 -4 24 -36 -16 -26 -31 -33 -35 -70 -32 -57 4 -69 29 -64
132 3 68 7 82 27 98 33 27 66 20 62 -12 -3 -32 23 -53 49 -39 67 35 -47 109
-121 78z"/>
<path d="M3186 3660 c-113 -35 -131 -210 -27 -265 65 -33 141 -14 171 43 15
31 4 42 -15 14 -30 -42 -47 -52 -85 -52 -52 0 -60 17 -60 124 0 73 3 89 20
106 35 35 79 24 72 -19 -3 -19 1 -30 12 -34 25 -10 46 3 46 29 0 42 -75 73
-134 54z"/>
<path d="M3990 3653 c-131 -67 -90 -273 54 -273 72 0 136 67 136 141 0 101
-106 175 -190 132z m90 -23 c17 -17 20 -33 20 -106 0 -104 -9 -124 -55 -124
-47 0 -55 20 -55 129 0 82 2 91 22 105 30 21 44 20 68 -4z"/>
<path d="M4733 3663 c-32 -6 -91 -76 -98 -117 -10 -48 10 -99 51 -136 29 -25
43 -30 84 -30 41 0 54 5 83 33 80 74 59 202 -39 243 -34 14 -41 15 -81 7z m73
-34 c16 -17 19 -37 19 -109 0 -100 -10 -120 -61 -120 -46 0 -57 29 -52 138 2
69 6 86 22 98 28 20 50 18 72 -7z"/>
<path d="M2060 3650 c0 -5 11 -10 25 -10 l25 0 0 -120 0 -120 -25 0 c-14 0
-25 -4 -25 -10 0 -6 33 -10 79 -10 44 0 83 5 86 10 4 6 -7 10 -24 10 l-31 0 0
130 0 130 -55 0 c-30 0 -55 -4 -55 -10z"/>
<path d="M2530 3650 c0 -5 11 -10 25 -10 l25 0 0 -120 0 -120 -26 0 c-14 0
-23 -4 -19 -10 3 -5 40 -10 81 -10 43 0 74 4 74 10 0 6 -9 10 -20 10 -19 0
-20 7 -20 95 0 89 2 98 25 121 14 14 33 24 43 22 15 -3 17 -19 20 -121 3 -112
2 -117 -18 -117 -11 0 -20 -4 -20 -10 0 -6 33 -10 80 -10 47 0 80 4 80 10 0 6
-11 10 -25 10 l-25 0 0 114 c0 91 -3 118 -16 130 -20 20 -93 21 -121 1 -19
-13 -22 -13 -27 0 -6 17 -116 22 -116 5z"/>
<path d="M2890 3650 c0 -5 11 -10 25 -10 l25 0 0 -120 0 -120 -26 0 c-14 0
-23 -4 -19 -10 3 -5 39 -10 80 -10 41 0 77 5 80 10 4 6 -5 10 -19 10 l-26 0 0
130 0 130 -60 0 c-33 0 -60 -4 -60 -10z"/>
<path d="M5313 3594 c-3 -8 2 -23 11 -32 15 -15 17 -15 32 0 21 21 11 48 -16
48 -11 0 -23 -7 -27 -16z"/>
<path d="M5507 3494 c-14 -14 -7 -68 32 -270 13 -68 13 -67 -153 -180 -38 -26
-80 -58 -93 -73 -32 -34 -113 -156 -113 -169 0 -24 23 -23 49 2 15 14 55 37
89 50 35 14 78 34 96 46 30 18 101 101 133 155 10 17 12 6 12 -65 0 -126 -12
-201 -54 -337 l-38 -122 -57 -21 c-60 -22 -88 -22 -196 -1 -28 5 -72 20 -97
32 -26 13 -50 19 -54 15 -9 -9 29 -43 111 -97 l59 -39 -61 0 c-43 0 -71 6 -95
20 -19 11 -67 31 -107 45 -104 35 -177 34 -279 -6 -44 -18 -78 -36 -75 -40 3
-5 33 -9 67 -9 63 0 103 -15 225 -84 23 -14 52 -26 64 -28 16 -2 5 -11 -43
-36 -82 -42 -142 -93 -138 -114 4 -15 8 -15 44 3 48 24 110 37 225 48 93 9
185 32 243 60 73 36 33 -9 -68 -76 -167 -111 -348 -191 -452 -200 -51 -5 -52
-4 -77 34 -23 35 -87 95 -126 118 -8 5 -35 12 -60 16 -25 4 -62 10 -82 14 -29
6 -38 4 -38 -6 1 -14 147 -131 196 -157 14 -7 24 -15 22 -16 -3 -3 -125 8
-233 22 l-59 7 -56 80 c-47 68 -61 81 -96 91 -34 10 -51 9 -90 -3 -230 -68
-282 -94 -255 -127 7 -9 17 -16 22 -16 4 0 28 -14 54 -31 25 -17 69 -43 99
-58 53 -26 56 -27 147 -16 113 12 518 13 574 1 l40 -9 -30 -8 c-160 -41 -197
-54 -245 -83 -65 -41 -80 -70 -28 -56 53 14 188 38 188 33 0 -2 -30 -18 -67
-35 -38 -16 -90 -42 -118 -56 -62 -32 -68 -34 -133 -63 -87 -38 -94 -66 -11
-48 24 6 103 14 174 18 117 7 136 11 191 39 42 21 77 50 115 94 30 35 56 65
59 68 3 3 31 37 62 76 31 39 71 78 90 87 18 9 78 43 133 76 55 32 101 58 103
57 1 -2 -5 -23 -13 -47 -8 -24 -23 -78 -33 -119 l-17 -75 -55 -26 c-62 -30
-160 -113 -160 -136 0 -9 -10 -31 -21 -50 -25 -41 -26 -73 -5 -136 12 -36 13
-51 3 -76 -13 -36 -4 -50 20 -28 10 8 49 28 87 43 91 38 152 92 170 152 8 27
15 38 15 25 1 -28 15 -37 31 -18 10 11 9 34 -4 106 -8 51 -20 97 -26 103 -15
15 -13 43 11 136 25 103 45 144 148 303 65 101 88 147 112 225 17 53 34 106
39 117 7 17 9 16 9 -10 2 -66 32 -174 70 -250 40 -82 54 -113 55 -129 1 -5 7
-11 14 -14 10 -3 12 22 10 120 l-4 125 41 -51 c59 -75 154 -161 165 -150 14
14 -13 129 -50 209 -25 54 -55 92 -130 170 -54 55 -104 111 -111 125 -9 18
-14 75 -14 200 -2 164 -6 213 -35 365 -22 117 -42 160 -63 139z m-1392 -1504
c-3 -5 -14 -10 -23 -10 -15 0 -15 2 -2 10 20 13 33 13 25 0z"/>
<path d="M2133 3143 c-23 -54 -24 -244 -1 -295 20 -44 50 -56 85 -33 18 12 28
14 36 6 14 -14 54 -14 62 -1 4 6 12 6 24 -2 30 -18 68 -1 94 43 24 40 24 40
31 15 4 -15 2 -35 -4 -46 -13 -25 -13 -30 4 -30 8 0 16 6 19 13 3 10 9 10 26
0 29 -18 44 -16 74 7 l26 21 21 -21 c11 -11 29 -20 41 -20 25 0 89 61 89 84 0
25 -12 19 -43 -19 -15 -19 -37 -35 -47 -35 -25 0 -25 5 0 30 24 24 26 53 5 70
-22 18 -48 8 -64 -25 -17 -37 -51 -75 -67 -75 -6 0 -17 7 -24 15 -10 12 -6 24
24 65 41 57 42 60 21 60 -8 0 -28 -19 -45 -41 l-30 -41 -10 26 c-5 15 -10 32
-10 37 0 26 -23 3 -49 -50 -17 -32 -37 -61 -45 -64 -22 -9 -39 27 -31 64 5 21
3 29 -7 29 -8 0 -18 -17 -24 -42 -7 -33 -14 -43 -29 -43 -21 0 -23 9 -11 63
11 49 -9 39 -41 -20 -32 -61 -61 -70 -76 -25 -7 23 -4 41 18 90 32 72 45 187
25 212 -22 27 -50 18 -67 -22z m50 -15 c7 -24 -9 -106 -29 -152 l-13 -31 -1
52 c0 60 18 153 30 153 4 0 10 -10 13 -22z m477 -232 c0 -15 -18 -31 -26 -23
-7 7 7 37 17 37 5 0 9 -6 9 -14z"/>
<path d="M3634 3025 c-9 -23 4 -47 23 -43 22 4 30 38 11 49 -19 13 -28 11 -34
-6z"/>
<path d="M3472 2968 c-15 -15 -15 -41 0 -56 9 -9 7 -18 -8 -39 -41 -55 -78
-59 -47 -5 21 36 10 65 -25 70 -16 2 -26 -6 -40 -35 -11 -21 -28 -46 -39 -55
-18 -16 -18 -16 -15 23 6 62 -29 89 -70 52 -17 -15 -18 -14 -18 16 0 42 -22
36 -31 -9 -8 -35 -35 -77 -62 -94 -13 -8 -21 -7 -33 6 -16 15 -14 20 20 67 40
57 42 61 22 61 -8 0 -28 -18 -44 -41 -31 -42 -35 -42 -46 4 -3 15 -11 27 -16
27 -5 0 -23 -27 -40 -59 -17 -35 -38 -62 -51 -66 -29 -9 -35 1 -15 24 10 11
16 31 14 48 -2 22 -9 29 -30 31 -53 6 -66 -84 -17 -120 38 -28 75 -15 109 39
27 42 28 43 34 18 4 -14 2 -34 -4 -45 -13 -25 -13 -30 4 -30 8 0 17 7 20 16 5
14 8 14 28 0 31 -22 41 -20 79 12 28 22 32 24 25 7 -52 -122 -74 -215 -61
-255 5 -16 13 -20 33 -18 38 4 52 41 59 157 5 92 7 99 24 91 29 -16 71 -11 95
11 l22 21 21 -21 c12 -12 28 -21 36 -21 33 0 72 30 90 69 23 51 35 52 35 3 0
-21 5 -43 12 -50 17 -17 63 -15 78 3 11 14 14 13 27 -5 19 -27 49 -25 78 5 14
13 25 20 25 15 0 -5 11 -17 25 -26 38 -25 71 -11 105 43 l30 47 0 -47 c0 -62
20 -62 56 -2 27 47 50 60 41 24 -9 -34 9 -69 37 -69 13 0 29 7 36 15 12 14 15
13 35 -5 27 -25 75 -26 106 -1 24 19 25 19 48 0 13 -10 32 -19 43 -19 23 0 88
64 88 86 0 24 -24 15 -45 -19 -11 -18 -30 -33 -43 -35 -28 -4 -28 1 0 39 25
34 17 62 -20 67 -16 3 -29 -9 -53 -47 -31 -51 -62 -70 -95 -57 -23 9 -15 80 9
84 15 3 18 0 12 -17 -5 -15 -2 -21 9 -21 24 0 21 57 -3 65 -28 8 -50 -4 -68
-39 -20 -40 -54 -77 -64 -70 -5 3 -9 25 -9 50 0 40 -2 44 -24 44 -15 0 -32
-11 -45 -27 l-20 -28 -1 25 c0 25 -16 50 -32 50 -4 0 -22 -25 -39 -55 -28 -49
-61 -76 -76 -61 -4 3 1 14 10 24 19 21 23 67 6 77 -23 15 -55 -6 -79 -52 -17
-33 -31 -48 -45 -48 -17 0 -20 8 -23 58 -3 64 -18 75 -28 22 -8 -45 -51 -92
-67 -76 -7 7 -12 31 -12 54 0 35 -3 42 -21 45 -12 2 -24 12 -27 23 -6 22 -18
24 -35 7z m-572 -72 c0 -8 -4 -18 -10 -21 -5 -3 -10 3 -10 14 0 12 5 21 10 21
6 0 10 -6 10 -14z m370 -16 c0 -33 -24 -50 -42 -32 -8 8 -6 18 6 36 22 35 36
33 36 -4z m128 13 c-2 -9 -8 -18 -15 -20 -7 -3 -9 3 -6 16 6 25 26 28 21 4z
m383 -16 c-8 -8 -11 -7 -11 4 0 20 13 34 18 19 3 -7 -1 -17 -7 -23z m519 24
c0 -5 -7 -14 -15 -21 -12 -10 -15 -10 -15 2 0 8 3 18 7 21 9 10 23 9 23 -2z
m-1123 -208 c-6 -74 -14 -103 -28 -103 -5 0 -9 12 -9 27 0 30 30 143 38 143 3
0 2 -30 -1 -67z"/>
<path d="M1296 2755 c-7 -19 20 -46 39 -39 8 4 15 17 15 30 0 19 -5 24 -24 24
-13 0 -26 -7 -30 -15z"/>
<path d="M1340 2645 c-17 -20 -5 -45 20 -45 11 0 23 7 26 15 6 15 -11 45 -26
45 -4 0 -13 -7 -20 -15z"/>
<path d="M1373 2524 c-3 -8 2 -23 11 -32 15 -15 17 -15 32 0 21 21 11 48 -16
48 -11 0 -23 -7 -27 -16z"/>
<path d="M1216 2448 c15 -50 116 -253 165 -335 132 -218 375 -489 563 -627
334 -246 652 -379 1056 -441 132 -21 488 -20 629 1 270 40 536 128 756 250
118 66 136 80 112 90 -10 3 -40 -9 -76 -31 -202 -122 -502 -228 -766 -271
-153 -25 -463 -30 -615 -10 -302 40 -565 126 -815 268 -298 170 -578 430 -768
718 -66 99 -207 370 -207 397 0 7 -9 13 -21 13 -17 0 -19 -4 -13 -22z"/>
<path d="M1427 2423 c-13 -12 -7 -41 10 -47 21 -8 48 17 40 38 -6 16 -38 22
-50 9z"/>
<path d="M1486 2315 c-20 -21 -10 -45 20 -45 27 0 33 30 10 49 -11 9 -17 8
-30 -4z"/>
<path d="M1544 2206 c-9 -24 4 -48 23 -44 24 4 24 52 0 56 -9 2 -20 -4 -23
-12z"/>
<path d="M1610 2106 c-18 -22 -5 -48 22 -44 17 2 23 10 23 28 0 29 -26 38 -45
16z"/>
<path d="M1680 2005 c-11 -13 -11 -19 3 -32 21 -21 49 -9 45 19 -4 28 -30 35
-48 13z"/>
<path d="M1760 1915 c-11 -13 -11 -19 3 -32 21 -21 49 -9 45 19 -4 28 -30 35
-48 13z"/>
<path d="M1847 1833 c-13 -12 -7 -44 9 -50 23 -9 48 25 33 44 -12 14 -32 17
-42 6z"/>
<path d="M1934 1746 c-9 -24 4 -48 23 -44 24 4 24 52 0 56 -9 2 -20 -4 -23
-12z"/>
<path d="M2023 1664 c-3 -8 2 -23 11 -32 15 -15 17 -15 32 0 21 21 11 48 -16
48 -11 0 -23 -7 -27 -16z"/>
<path d="M2124 1595 c-8 -21 2 -45 19 -45 8 0 20 7 27 15 10 12 10 18 0 30 -7
8 -19 15 -27 15 -7 0 -16 -7 -19 -15z"/>
<path d="M2224 1525 c-4 -9 -2 -21 4 -27 16 -16 47 -5 47 17 0 26 -42 34 -51
10z"/>
<path d="M2328 1468 c-9 -23 3 -38 29 -38 20 0 24 4 21 23 -3 25 -42 37 -50
15z"/>
<path d="M4207 1453 c-13 -12 -7 -44 9 -50 23 -9 48 25 33 44 -12 14 -32 17
-42 6z"/>
<path d="M2447 1423 c-11 -10 -8 -41 4 -49 16 -9 43 21 36 40 -7 16 -28 21
-40 9z"/>
<path d="M4087 1397 c-8 -22 17 -51 37 -44 25 10 17 51 -10 55 -12 2 -24 -3
-27 -11z"/>
<path d="M2550 1355 c0 -20 5 -25 25 -25 20 0 25 5 25 25 0 20 -5 25 -25 25
-20 0 -25 -5 -25 -25z"/>
<path d="M3980 1355 c-18 -21 -5 -47 22 -43 26 3 37 36 16 49 -18 12 -24 11
-38 -6z"/>
<path d="M2663 1324 c-4 -11 1 -22 12 -31 16 -11 21 -11 33 1 8 8 12 22 9 30
-8 21 -46 21 -54 0z"/>
<path d="M3864 1316 c-9 -24 4 -48 23 -44 12 2 18 12 18 28 0 29 -32 41 -41
16z"/>
<path d="M2784 1295 c-7 -18 2 -45 15 -45 5 0 17 7 26 16 12 12 13 19 4 30
-15 18 -38 18 -45 -1z"/>
<path d="M3744 1285 c-8 -21 2 -45 19 -45 21 0 38 25 31 44 -8 20 -43 21 -50
1z"/>
<path d="M2900 1255 c0 -20 5 -25 25 -25 20 0 25 5 25 25 0 20 -5 25 -25 25
-20 0 -25 -5 -25 -25z"/>
<path d="M3630 1265 c-17 -20 -5 -45 20 -45 11 0 23 7 26 15 6 15 -11 45 -26
45 -4 0 -13 -7 -20 -15z"/>
<path d="M3020 1234 c0 -21 4 -25 23 -22 14 2 23 11 25 26 3 18 -1 22 -22 22
-21 0 -26 -5 -26 -26z"/>
<path d="M3504 1245 c-8 -21 2 -45 19 -45 21 0 38 25 31 44 -8 20 -43 21 -50
1z"/>
<path d="M3138 1238 c-9 -23 3 -38 28 -38 19 0 24 5 24 25 0 20 -5 25 -24 25
-13 0 -26 -6 -28 -12z"/>
<path d="M3264 1236 c-9 -24 4 -48 23 -44 12 2 18 12 18 28 0 29 -32 41 -41
16z"/>
<path d="M3387 1243 c-13 -12 -7 -41 10 -47 21 -9 46 16 37 37 -6 17 -35 23
-47 10z"/>
</g>
</svg>
